<?xml version="1.0" encoding="UTF-8" standalone="no"?>
<!-- Created with Inkscape (http://www.inkscape.org/) -->

<svg
   width="200.26459mm"
   height="110.26458mm"
   viewBox="0 0 200.26459 110.26458"
   version="1.1"
   id="svg3444"
   sodipodi:docname="flag.svg"
   inkscape:version="1.1 (1:1.1+202106032008+af4d65493e)"
   xmlns:inkscape="http://www.inkscape.org/namespaces/inkscape"
   xmlns:sodipodi="http://sodipodi.sourceforge.net/DTD/sodipodi-0.dtd"
   xmlns="http://www.w3.org/2000/svg"
   xmlns:svg="http://www.w3.org/2000/svg">
  <sodipodi:namedview
     id="namedview3446"
     pagecolor="#ffffff"
     bordercolor="#666666"
     borderopacity="1.0"
     inkscape:pageshadow="2"
     inkscape:pageopacity="0.0"
     inkscape:pagecheckerboard="0"
     inkscape:document-units="mm"
     showgrid="false"
     inkscape:zoom="0.64052329"
     inkscape:cx="415.28545"
     inkscape:cy="579.99452"
     inkscape:window-width="1551"
     inkscape:window-height="970"
     inkscape:window-x="26"
     inkscape:window-y="23"
     inkscape:window-maximized="0"
     inkscape:current-layer="layer1"
     fit-margin-top="5"
     fit-margin-left="5"
     fit-margin-right="5"
     fit-margin-bottom="5" />
  <defs
     id="defs3441" />
  <g
     inkscape:label="Layer 1"
     inkscape:groupmode="layer"
     id="layer1"
     transform="translate(5.1322915,5.1322915)" />
  <g
     inkscape:groupmode="layer"
     inkscape:label="star"
     id="g3573"
     transform="translate(5.1322915,5.1322915)">
    <polygon
       style="fill:none;stroke:#000000;stroke-width:0.264583;stroke-linejoin:round"
       points="190,100 0,100 0,0 190,0 "
       id="polygon3455" />
    <polygon
       style="fill:#bf0a30;stroke:none;stroke-width:0.264583;stroke-linejoin:round"
       points="190,7.6923077 76,7.6923077 76,0 190,0 "
       id="polygon3457" />
    <polygon
       style="fill:#bf0a30;stroke:none;stroke-width:0.264583;stroke-linejoin:round"
       points="190,23.076923 76,23.076923 76,15.384615 190,15.384615 "
       id="polygon3459" />
    <polygon
       style="fill:#bf0a30;stroke:none;stroke-width:0.264583;stroke-linejoin:round"
       points="190,38.461538 76,38.461538 76,30.769231 190,30.769231 "
       id="polygon3461" />
    <polygon
       style="fill:#bf0a30;stroke:none;stroke-width:0.264583;stroke-linejoin:round"
       points="190,53.846154 76,53.846154 76,46.153846 190,46.153846 "
       id="polygon3463" />
    <polygon
       style="fill:#bf0a30;stroke:none;stroke-width:0.264583;stroke-linejoin:round"
       points="190,69.230769 0,69.230769 0,61.538462 190,61.538462 "
       id="polygon3465" />
    <polygon
       style="fill:#bf0a30;stroke:none;stroke-width:0.264583;stroke-linejoin:round"
       points="190,84.615385 0,84.615385 0,76.923077 190,76.923077 "
       id="polygon3467" />
    <polygon
       style="fill:#bf0a30;stroke:none;stroke-width:0.264583;stroke-linejoin:round"
       points="190,100 0,100 0,92.307692 190,92.307692 "
       id="polygon3469" />
    <polygon
       style="fill:#002868;stroke:none;stroke-width:0.264583;stroke-linejoin:round"
       points="76,53.846154 0,53.846154 0,0 76,0 "
       id="polygon3471" />
    <polygon
       style="fill:#ffffff;stroke:none;stroke-width:0.264583;stroke-linejoin:round"
       points="9.38,4.3992473 7.4764553,5.7822535 8.2035447,8.0200045 6.3,6.6369983 4.3964553,8.0200045 5.1235447,5.7822535 3.22,4.3992473 5.5729106,4.3992473 6.3,2.1614963 7.0270894,4.3992473 "
       id="polygon3473" />
    <polygon
       style="fill:#ffffff;stroke:none;stroke-width:0.264583;stroke-linejoin:round"
       points="21.98,4.3992473 20.076455,5.7822535 20.803545,8.0200045 18.9,6.6369983 16.996455,8.0200045 17.723545,5.7822535 15.82,4.3992473 18.172911,4.3992473 18.9,2.1614963 19.627089,4.3992473 "
       id="polygon3475" />
    <polygon
       style="fill:#ffffff;stroke:none;stroke-width:0.264583;stroke-linejoin:round"
       points="34.58,4.3992473 32.676455,5.7822535 33.403545,8.0200045 31.5,6.6369983 29.596455,8.0200045 30.323545,5.7822535 28.42,4.3992473 30.772911,4.3992473 31.5,2.1614963 32.227089,4.3992473 "
       id="polygon3477" />
    <polygon
       style="fill:#ffffff;stroke:none;stroke-width:0.264583;stroke-linejoin:round"
       points="47.18,4.3992473 45.276455,5.7822535 46.003545,8.0200045 44.1,6.6369983 42.196455,8.0200045 42.923545,5.7822535 41.02,4.3992473 43.372911,4.3992473 44.1,2.1614963 44.827089,4.3992473 "
       id="polygon3479" />
    <polygon
       style="fill:#ffffff;stroke:none;stroke-width:0.264583;stroke-linejoin:round"
       points="59.78,4.3992473 57.876455,5.7822535 58.603545,8.0200045 56.7,6.6369983 54.796455,8.0200045 55.523545,5.7822535 53.62,4.3992473 55.972911,4.3992473 56.7,2.1614963 57.427089,4.3992473 "
       id="polygon3481" />
    <polygon
       style="fill:#ffffff;stroke:none;stroke-width:0.264583;stroke-linejoin:round"
       points="72.38,4.3992473 70.476455,5.7822535 71.203545,8.0200045 69.3,6.6369983 67.396455,8.0200045 68.123545,5.7822535 66.22,4.3992473 68.572911,4.3992473 69.3,2.1614963 70.027089,4.3992473 "
       id="polygon3483" />
    <polygon
       style="fill:#ffffff;stroke:none;stroke-width:0.264583;stroke-linejoin:round"
       points="9.38,15.199247 7.4764553,16.582254 8.2035447,18.820004 6.3,17.436998 4.3964553,18.820004 5.1235447,16.582254 3.22,15.199247 5.5729106,15.199247 6.3,12.961496 7.0270894,15.199247 "
       id="polygon3485" />
    <polygon
       style="fill:#ffffff;stroke:none;stroke-width:0.264583;stroke-linejoin:round"
       points="21.98,15.199247 20.076455,16.582254 20.803545,18.820004 18.9,17.436998 16.996455,18.820004 17.723545,16.582254 15.82,15.199247 18.172911,15.199247 18.9,12.961496 19.627089,15.199247 "
       id="polygon3487" />
    <polygon
       style="fill:#ffffff;stroke:none;stroke-width:0.264583;stroke-linejoin:round"
       points="34.58,15.199247 32.676455,16.582254 33.403545,18.820004 31.5,17.436998 29.596455,18.820004 30.323545,16.582254 28.42,15.199247 30.772911,15.199247 31.5,12.961496 32.227089,15.199247 "
       id="polygon3489" />
    <polygon
       style="fill:#ffffff;stroke:none;stroke-width:0.264583;stroke-linejoin:round"
       points="47.18,15.199247 45.276455,16.582254 46.003545,18.820004 44.1,17.436998 42.196455,18.820004 42.923545,16.582254 41.02,15.199247 43.372911,15.199247 44.1,12.961496 44.827089,15.199247 "
       id="polygon3491" />
    <polygon
       style="fill:#ffffff;stroke:none;stroke-width:0.264583;stroke-linejoin:round"
       points="59.78,15.199247 57.876455,16.582254 58.603545,18.820004 56.7,17.436998 54.796455,18.820004 55.523545,16.582254 53.62,15.199247 55.972911,15.199247 56.7,12.961496 57.427089,15.199247 "
       id="polygon3493" />
    <polygon
       style="fill:#ffffff;stroke:none;stroke-width:0.264583;stroke-linejoin:round"
       points="72.38,15.199247 70.476455,16.582254 71.203545,18.820004 69.3,17.436998 67.396455,18.820004 68.123545,16.582254 66.22,15.199247 68.572911,15.199247 69.3,12.961496 70.027089,15.199247 "
       id="polygon3495" />
    <polygon
       style="fill:#ffffff;stroke:none;stroke-width:0.264583;stroke-linejoin:round"
       points="9.38,25.999247 7.4764553,27.382254 8.2035447,29.620004 6.3,28.236998 4.3964553,29.620004 5.1235447,27.382254 3.22,25.999247 5.5729106,25.999247 6.3,23.761496 7.0270894,25.999247 "
       id="polygon3497" />
    <polygon
       style="fill:#ffffff;stroke:none;stroke-width:0.264583;stroke-linejoin:round"
       points="21.98,25.999247 20.076455,27.382254 20.803545,29.620004 18.9,28.236998 16.996455,29.620004 17.723545,27.382254 15.82,25.999247 18.172911,25.999247 18.9,23.761496 19.627089,25.999247 "
       id="polygon3499" />
    <polygon
       style="fill:#ffffff;stroke:none;stroke-width:0.264583;stroke-linejoin:round"
       points="34.58,25.999247 32.676455,27.382254 33.403545,29.620004 31.5,28.236998 29.596455,29.620004 30.323545,27.382254 28.42,25.999247 30.772911,25.999247 31.5,23.761496 32.227089,25.999247 "
       id="polygon3501" />
    <polygon
       style="fill:#ffffff;stroke:none;stroke-width:0.264583;stroke-linejoin:round"
       points="47.18,25.999247 45.276455,27.382254 46.003545,29.620004 44.1,28.236998 42.196455,29.620004 42.923545,27.382254 41.02,25.999247 43.372911,25.999247 44.1,23.761496 44.827089,25.999247 "
       id="polygon3503" />
    <polygon
       style="fill:#ffffff;stroke:none;stroke-width:0.264583;stroke-linejoin:round"
       points="59.78,25.999247 57.876455,27.382254 58.603545,29.620004 56.7,28.236998 54.796455,29.620004 55.523545,27.382254 53.62,25.999247 55.972911,25.999247 56.7,23.761496 57.427089,25.999247 "
       id="polygon3505" />
    <polygon
       style="fill:#ffffff;stroke:none;stroke-width:0.264583;stroke-linejoin:round"
       points="72.38,25.999247 70.476455,27.382254 71.203545,29.620004 69.3,28.236998 67.396455,29.620004 68.123545,27.382254 66.22,25.999247 68.572911,25.999247 69.3,23.761496 70.027089,25.999247 "
       id="polygon3507" />
    <polygon
       style="fill:#ffffff;stroke:none;stroke-width:0.264583;stroke-linejoin:round"
       points="9.38,36.799247 7.4764553,38.182254 8.2035447,40.420004 6.3,39.036998 4.3964553,40.420004 5.1235447,38.182254 3.22,36.799247 5.5729106,36.799247 6.3,34.561496 7.0270894,36.799247 "
       id="polygon3509" />
    <polygon
       style="fill:#ffffff;stroke:none;stroke-width:0.264583;stroke-linejoin:round"
       points="21.98,36.799247 20.076455,38.182254 20.803545,40.420004 18.9,39.036998 16.996455,40.420004 17.723545,38.182254 15.82,36.799247 18.172911,36.799247 18.9,34.561496 19.627089,36.799247 "
       id="polygon3511" />
    <polygon
       style="fill:#ffffff;stroke:none;stroke-width:0.264583;stroke-linejoin:round"
       points="34.58,36.799247 32.676455,38.182254 33.403545,40.420004 31.5,39.036998 29.596455,40.420004 30.323545,38.182254 28.42,36.799247 30.772911,36.799247 31.5,34.561496 32.227089,36.799247 "
       id="polygon3513" />
    <polygon
       style="fill:#ffffff;stroke:none;stroke-width:0.264583;stroke-linejoin:round"
       points="47.18,36.799247 45.276455,38.182254 46.003545,40.420004 44.1,39.036998 42.196455,40.420004 42.923545,38.182254 41.02,36.799247 43.372911,36.799247 44.1,34.561496 44.827089,36.799247 "
       id="polygon3515" />
    <polygon
       style="fill:#ffffff;stroke:none;stroke-width:0.264583;stroke-linejoin:round"
       points="59.78,36.799247 57.876455,38.182254 58.603545,40.420004 56.7,39.036998 54.796455,40.420004 55.523545,38.182254 53.62,36.799247 55.972911,36.799247 56.7,34.561496 57.427089,36.799247 "
       id="polygon3517" />
    <polygon
       style="fill:#ffffff;stroke:none;stroke-width:0.264583;stroke-linejoin:round"
       points="72.38,36.799247 70.476455,38.182254 71.203545,40.420004 69.3,39.036998 67.396455,40.420004 68.123545,38.182254 66.22,36.799247 68.572911,36.799247 69.3,34.561496 70.027089,36.799247 "
       id="polygon3519" />
    <polygon
       style="fill:#ffffff;stroke:none;stroke-width:0.264583;stroke-linejoin:round"
       points="9.38,47.599247 7.4764553,48.982254 8.2035447,51.220004 6.3,49.836998 4.3964553,51.220004 5.1235447,48.982254 3.22,47.599247 5.5729106,47.599247 6.3,45.361496 7.0270894,47.599247 "
       id="polygon3521" />
    <polygon
       style="fill:#ffffff;stroke:none;stroke-width:0.264583;stroke-linejoin:round"
       points="21.98,47.599247 20.076455,48.982254 20.803545,51.220004 18.9,49.836998 16.996455,51.220004 17.723545,48.982254 15.82,47.599247 18.172911,47.599247 18.9,45.361496 19.627089,47.599247 "
       id="polygon3523" />
    <polygon
       style="fill:#ffffff;stroke:none;stroke-width:0.264583;stroke-linejoin:round"
       points="34.58,47.599247 32.676455,48.982254 33.403545,51.220004 31.5,49.836998 29.596455,51.220004 30.323545,48.982254 28.42,47.599247 30.772911,47.599247 31.5,45.361496 32.227089,47.599247 "
       id="polygon3525" />
    <polygon
       style="fill:#ffffff;stroke:none;stroke-width:0.264583;stroke-linejoin:round"
       points="47.18,47.599247 45.276455,48.982254 46.003545,51.220004 44.1,49.836998 42.196455,51.220004 42.923545,48.982254 41.02,47.599247 43.372911,47.599247 44.1,45.361496 44.827089,47.599247 "
       id="polygon3527" />
    <polygon
       style="fill:#ffffff;stroke:none;stroke-width:0.264583;stroke-linejoin:round"
       points="59.78,47.599247 57.876455,48.982254 58.603545,51.220004 56.7,49.836998 54.796455,51.220004 55.523545,48.982254 53.62,47.599247 55.972911,47.599247 56.7,45.361496 57.427089,47.599247 "
       id="polygon3529" />
    <polygon
       style="fill:#ffffff;stroke:none;stroke-width:0.264583;stroke-linejoin:round"
       points="72.38,47.599247 70.476455,48.982254 71.203545,51.220004 69.3,49.836998 67.396455,51.220004 68.123545,48.982254 66.22,47.599247 68.572911,47.599247 69.3,45.361496 70.027089,47.599247 "
       id="polygon3531" />
    <polygon
       style="fill:#ffffff;stroke:none;stroke-width:0.264583;stroke-linejoin:round"
       points="15.68,9.7992473 13.776455,11.182254 14.503545,13.420004 12.6,12.036998 10.696455,13.420004 11.423545,11.182254 9.52,9.7992473 11.872911,9.7992473 12.6,7.5614963 13.327089,9.7992473 "
       id="polygon3533" />
    <polygon
       style="fill:#ffffff;stroke:none;stroke-width:0.264583;stroke-linejoin:round"
       points="28.28,9.7992473 26.376455,11.182254 27.103545,13.420004 25.2,12.036998 23.296455,13.420004 24.023545,11.182254 22.12,9.7992473 24.472911,9.7992473 25.2,7.5614963 25.927089,9.7992473 "
       id="polygon3535" />
    <polygon
       style="fill:#ffffff;stroke:none;stroke-width:0.264583;stroke-linejoin:round"
       points="40.88,9.7992473 38.976455,11.182254 39.703545,13.420004 37.8,12.036998 35.896455,13.420004 36.623545,11.182254 34.72,9.7992473 37.072911,9.7992473 37.8,7.5614963 38.527089,9.7992473 "
       id="polygon3537" />
    <polygon
       style="fill:#ffffff;stroke:none;stroke-width:0.264583;stroke-linejoin:round"
       points="53.48,9.7992473 51.576455,11.182254 52.303545,13.420004 50.4,12.036998 48.496455,13.420004 49.223545,11.182254 47.32,9.7992473 49.672911,9.7992473 50.4,7.5614963 51.127089,9.7992473 "
       id="polygon3539" />
    <polygon
       style="fill:#ffffff;stroke:none;stroke-width:0.264583;stroke-linejoin:round"
       points="66.08,9.7992473 64.176455,11.182254 64.903545,13.420004 63,12.036998 61.096455,13.420004 61.823545,11.182254 59.92,9.7992473 62.272911,9.7992473 63,7.5614963 63.727089,9.7992473 "
       id="polygon3541" />
    <polygon
       style="fill:#ffffff;stroke:none;stroke-width:0.264583;stroke-linejoin:round"
       points="15.68,20.599247 13.776455,21.982254 14.503545,24.220004 12.6,22.836998 10.696455,24.220004 11.423545,21.982254 9.52,20.599247 11.872911,20.599247 12.6,18.361496 13.327089,20.599247 "
       id="polygon3543" />
    <polygon
       style="fill:#ffffff;stroke:none;stroke-width:0.264583;stroke-linejoin:round"
       points="28.28,20.599247 26.376455,21.982254 27.103545,24.220004 25.2,22.836998 23.296455,24.220004 24.023545,21.982254 22.12,20.599247 24.472911,20.599247 25.2,18.361496 25.927089,20.599247 "
       id="polygon3545" />
    <polygon
       style="fill:#ffffff;stroke:none;stroke-width:0.264583;stroke-linejoin:round"
       points="40.88,20.599247 38.976455,21.982254 39.703545,24.220004 37.8,22.836998 35.896455,24.220004 36.623545,21.982254 34.72,20.599247 37.072911,20.599247 37.8,18.361496 38.527089,20.599247 "
       id="polygon3547" />
    <polygon
       style="fill:#ffffff;stroke:none;stroke-width:0.264583;stroke-linejoin:round"
       points="53.48,20.599247 51.576455,21.982254 52.303545,24.220004 50.4,22.836998 48.496455,24.220004 49.223545,21.982254 47.32,20.599247 49.672911,20.599247 50.4,18.361496 51.127089,20.599247 "
       id="polygon3549" />
    <polygon
       style="fill:#ffffff;stroke:none;stroke-width:0.264583;stroke-linejoin:round"
       points="66.08,20.599247 64.176455,21.982254 64.903545,24.220004 63,22.836998 61.096455,24.220004 61.823545,21.982254 59.92,20.599247 62.272911,20.599247 63,18.361496 63.727089,20.599247 "
       id="polygon3551" />
    <polygon
       style="fill:#ffffff;stroke:none;stroke-width:0.264583;stroke-linejoin:round"
       points="15.68,31.399247 13.776455,32.782254 14.503545,35.020004 12.6,33.636998 10.696455,35.020004 11.423545,32.782254 9.52,31.399247 11.872911,31.399247 12.6,29.161496 13.327089,31.399247 "
       id="polygon3553" />
    <polygon
       style="fill:#ffffff;stroke:none;stroke-width:0.264583;stroke-linejoin:round"
       points="28.28,31.399247 26.376455,32.782254 27.103545,35.020004 25.2,33.636998 23.296455,35.020004 24.023545,32.782254 22.12,31.399247 24.472911,31.399247 25.2,29.161496 25.927089,31.399247 "
       id="polygon3555" />
    <polygon
       style="fill:#ffffff;stroke:none;stroke-width:0.264583;stroke-linejoin:round"
       points="40.88,31.399247 38.976455,32.782254 39.703545,35.020004 37.8,33.636998 35.896455,35.020004 36.623545,32.782254 34.72,31.399247 37.072911,31.399247 37.8,29.161496 38.527089,31.399247 "
       id="polygon3557" />
    <polygon
       style="fill:#ffffff;stroke:none;stroke-width:0.264583;stroke-linejoin:round"
       points="53.48,31.399247 51.576455,32.782254 52.303545,35.020004 50.4,33.636998 48.496455,35.020004 49.223545,32.782254 47.32,31.399247 49.672911,31.399247 50.4,29.161496 51.127089,31.399247 "
       id="polygon3559" />
    <polygon
       style="fill:#ffffff;stroke:none;stroke-width:0.264583;stroke-linejoin:round"
       points="66.08,31.399247 64.176455,32.782254 64.903545,35.020004 63,33.636998 61.096455,35.020004 61.823545,32.782254 59.92,31.399247 62.272911,31.399247 63,29.161496 63.727089,31.399247 "
       id="polygon3561" />
    <polygon
       style="fill:#ffffff;stroke:none;stroke-width:0.264583;stroke-linejoin:round"
       points="15.68,42.199247 13.776455,43.582254 14.503545,45.820004 12.6,44.436998 10.696455,45.820004 11.423545,43.582254 9.52,42.199247 11.872911,42.199247 12.6,39.961496 13.327089,42.199247 "
       id="polygon3563" />
    <polygon
       style="fill:#ffffff;stroke:none;stroke-width:0.264583;stroke-linejoin:round"
       points="28.28,42.199247 26.376455,43.582254 27.103545,45.820004 25.2,44.436998 23.296455,45.820004 24.023545,43.582254 22.12,42.199247 24.472911,42.199247 25.2,39.961496 25.927089,42.199247 "
       id="polygon3565" />
    <polygon
       style="fill:#ffffff;stroke:none;stroke-width:0.264583;stroke-linejoin:round"
       points="40.88,42.199247 38.976455,43.582254 39.703545,45.820004 37.8,44.436998 35.896455,45.820004 36.623545,43.582254 34.72,42.199247 37.072911,42.199247 37.8,39.961496 38.527089,42.199247 "
       id="polygon3567" />
    <polygon
       style="fill:#ffffff;stroke:none;stroke-width:0.264583;stroke-linejoin:round"
       points="53.48,42.199247 51.576455,43.582254 52.303545,45.820004 50.4,44.436998 48.496455,45.820004 49.223545,43.582254 47.32,42.199247 49.672911,42.199247 50.4,39.961496 51.127089,42.199247 "
       id="polygon3569" />
    <polygon
       style="fill:#ffffff;stroke:none;stroke-width:0.264583;stroke-linejoin:round"
       points="66.08,42.199247 64.176455,43.582254 64.903545,45.820004 63,44.436998 61.096455,45.820004 61.823545,43.582254 59.92,42.199247 62.272911,42.199247 63,39.961496 63.727089,42.199247 "
       id="polygon3571" />
  </g>
</svg>
